<?xml version="1.0" standalone="no"?>
<!DOCTYPE svg PUBLIC "-//W3C//DTD SVG 20010904//EN"
 "http://www.w3.org/TR/2001/REC-SVG-20010904/DTD/svg10.dtd">
<svg version="1.0" xmlns="http://www.w3.org/2000/svg"
 width="1080.000000pt" height="1080.000000pt" viewBox="0 0 1080.000000 1080.000000"
 preserveAspectRatio="xMidYMid meet">

<g transform="translate(0.000000,1080.000000) scale(0.100000,-0.100000)"
fill="#000000" stroke="none">
<path d="M6525 6408 c-4 -11 -386 -1350 -443 -1556 l-21 -73 31 3 31 3 67 240
66 240 290 0 289 0 56 -200 c32 -110 62 -219 68 -242 10 -39 14 -43 42 -43 29
0 31 2 24 28 -5 21 -440 1525 -461 1595 -6 20 -32 23 -39 5z m215 -811 c40
-141 71 -260 68 -262 -3 -3 -124 -4 -269 -3 l-265 3 73 260 c60 216 119 437
185 690 10 39 12 33 73 -195 34 -129 95 -351 135 -493z"/>
<path d="M1958 6404 c-5 -4 -8 -371 -8 -816 l0 -809 28 3 27 3 3 358 2 357
130 0 129 0 31 -46 c44 -63 124 -233 155 -329 14 -44 38 -140 52 -212 25 -125
28 -133 50 -133 20 0 23 5 23 39 0 48 -32 203 -61 296 -29 95 -97 245 -148
329 -23 38 -40 69 -39 70 2 1 34 16 72 35 55 28 77 46 112 94 68 92 89 172 88
337 0 117 -3 143 -23 195 -45 113 -98 172 -191 211 -37 15 -79 19 -235 22
-104 2 -193 0 -197 -4z m399 -70 c72 -23 117 -64 154 -140 29 -59 33 -77 37
-175 8 -186 -28 -301 -119 -383 -70 -63 -120 -76 -286 -76 l-133 0 0 402 0
401 148 -6 c95 -4 165 -12 199 -23z"/>
<path d="M5606 6338 c-3 -13 -6 -107 -6 -210 l0 -187 -92 -3 c-88 -3 -93 -4
-96 -25 -3 -22 -1 -23 92 -23 l96 0 0 -372 c1 -483 9 -611 41 -675 35 -68 72
-85 174 -81 44 2 93 10 109 18 65 33 59 83 -6 55 -105 -43 -196 -24 -233 50
-19 38 -20 63 -23 522 l-3 482 163 3 c160 3 163 3 166 25 3 22 2 23 -160 25
l-163 3 -3 208 -2 207 -24 0 c-16 0 -26 -7 -30 -22z"/>
<path d="M3120 5960 c-68 -15 -146 -57 -180 -98 -93 -112 -140 -300 -140 -559
0 -290 60 -452 188 -511 109 -50 347 -41 462 18 47 24 54 34 46 66 l-7 25 -27
-20 c-87 -62 -307 -87 -419 -48 -114 40 -171 152 -180 358 l-6 116 209 6 c211
7 409 28 428 47 7 7 11 80 11 193 0 165 -2 187 -22 237 -48 117 -120 169 -245
175 -40 2 -93 0 -118 -5z m207 -69 c87 -40 123 -141 123 -348 0 -129 -1 -134
-22 -142 -54 -20 -340 -38 -522 -32 l-49 1 7 90 c12 165 67 319 136 385 64 62
238 86 327 46z"/>
<path d="M4052 5959 c-107 -21 -208 -91 -255 -177 -52 -96 -69 -187 -74 -402
-8 -297 25 -446 116 -540 63 -65 127 -84 263 -78 84 4 106 9 163 37 46 23 67
39 71 56 10 42 -4 44 -62 10 -100 -61 -244 -71 -341 -24 -122 59 -181 295
-155 616 21 264 82 378 232 434 79 30 197 24 265 -14 26 -15 50 -26 51 -24 2
2 5 14 6 27 7 62 -147 106 -280 79z"/>
<path d="M4850 5960 c-68 -15 -146 -57 -180 -98 -93 -112 -140 -300 -140 -559
0 -290 60 -452 188 -511 109 -50 347 -41 462 18 47 24 54 34 46 66 l-7 25 -27
-20 c-87 -62 -307 -87 -419 -48 -114 40 -171 152 -180 358 l-6 116 209 6 c211
7 409 28 428 47 7 7 11 80 11 193 0 165 -2 187 -22 237 -48 117 -120 169 -245
175 -40 2 -93 0 -118 -5z m207 -69 c87 -40 123 -141 123 -348 0 -129 -1 -134
-22 -142 -54 -20 -340 -38 -522 -32 l-49 1 7 90 c12 165 67 319 136 385 64 62
238 86 327 46z"/>
<path d="M7470 5964 c-73 -13 -122 -28 -183 -56 l-67 -31 2 -776 3 -776 23 -3
22 -3 0 265 c0 146 4 266 9 266 5 0 14 -7 22 -16 7 -8 36 -28 63 -42 45 -23
63 -27 146 -27 84 0 101 3 153 29 81 39 161 120 198 200 51 110 72 234 72 441
1 137 -3 196 -16 248 -35 139 -97 217 -206 258 -54 20 -187 33 -241 23z m245
-85 c64 -33 109 -91 137 -182 21 -65 23 -92 23 -272 0 -160 -4 -216 -19 -280
-36 -154 -105 -247 -226 -303 -113 -53 -243 -25 -324 69 l-36 43 0 442 0 442
46 22 c81 40 133 50 244 47 88 -3 113 -7 155 -28z"/>
<path d="M8413 5960 c-61 -11 -145 -42 -191 -70 l-32 -20 2 -772 3 -773 25 0
25 0 3 262 2 263 41 -29 c100 -73 244 -82 356 -22 122 65 202 181 238 341 26
118 32 415 11 521 -42 204 -145 294 -351 304 -44 2 -103 0 -132 -5z m236 -66
c60 -18 123 -70 152 -126 40 -78 53 -163 52 -348 -1 -260 -35 -394 -126 -489
-57 -58 -104 -87 -176 -107 -75 -21 -145 -9 -215 37 -90 60 -86 36 -86 537 l0
442 40 20 c97 49 257 65 359 34z"/>
</g>
</svg>
